<?xml version="1.0" encoding="utf-8"?>
<!-- Generator: Adobe Illustrator 24.3.0, SVG Export Plug-In . SVG Version: 6.00 Build 0)  -->
<svg version="1.1" id="Layer_4" xmlns="http://www.w3.org/2000/svg" xmlns:xlink="http://www.w3.org/1999/xlink" x="0px" y="0px"
	 viewBox="0 0 190.9 59.9" style="enable-background:new 0 0 190.9 59.9;" xml:space="preserve">
<style type="text/css">
	.st0{clip-path:url(#SVGID_1_);}
	.st1{clip-path:url(#SVGID_2_);fill:#7DBA45;}
	.st2{fill:#7DBA45;}
</style>
<g>
	<g>
		<defs>
			<rect id="SVGID_5_" x="17.6" y="3.2" width="155.7" height="54.8"/>
		</defs>
		<clipPath id="SVGID_1_">
			<use xlink:href="#SVGID_5_"  style="overflow:visible;"/>
		</clipPath>
		<path class="st0" d="M37.3,48.7v-9.1c0-2.6-0.9-3.7-2.9-3.7c-2.4,0-3.9,1.5-3.9,3.8v8.9h-3v-9.1c0-2.6-0.9-3.7-2.9-3.7
			c-2.4,0-3.9,1.5-3.9,3.8v8.9h-3V33.5h3v2c0.9-1.5,2.6-2.4,4.7-2.4c2.2,0,3.8,1,4.6,2.9c0.9-1.8,2.8-2.9,5.2-2.9
			c1.7,0,3,0.5,3.8,1.5c0.9,1,1.3,2.4,1.3,4.3v9.7H37.3z"/>
		<path class="st0" d="M50,49.1c-4.2,0-7.2-3.4-7.2-8c0-4.6,3-8,7.2-8c2.3,0,4.3,1,5.2,2.7v-2.2h3v15.1h-3v-2.2
			C54.2,48.1,52.3,49.1,50,49.1 M50.7,35.9c-1.4,0-2.5,0.5-3.4,1.5c-0.9,0.9-1.3,2.2-1.3,3.7c0,1.5,0.4,2.7,1.3,3.7
			c0.9,0.9,2,1.4,3.4,1.4c1.4,0,2.5-0.5,3.4-1.4c0.9-1,1.3-2.2,1.3-3.7C55.3,38,53.5,35.9,50.7,35.9"/>
		<path class="st0" d="M72.2,48.7v-9c0-2.6-1-3.7-3.1-3.7c-2.6,0-4.2,1.5-4.2,3.8v8.9h-3V33.5h3v2.1c1-1.6,2.8-2.5,4.9-2.5
			c3.4,0,5.4,2.2,5.4,5.9v9.7H72.2z"/>
		<path class="st0" d="M84.9,49.1c-4.2,0-7.2-3.4-7.2-8c0-4.6,3-8,7.2-8c2.3,0,4.3,1,5.2,2.7v-2.2h3v15.1h-3v-2.2
			C89.1,48.1,87.2,49.1,84.9,49.1 M85.5,35.9c-1.4,0-2.5,0.5-3.4,1.5c-0.9,0.9-1.3,2.2-1.3,3.7c0,1.5,0.4,2.7,1.3,3.7
			c0.9,0.9,2,1.4,3.4,1.4c1.4,0,2.5-0.5,3.4-1.4c0.9-1,1.3-2.2,1.3-3.7C90.2,38,88.3,35.9,85.5,35.9"/>
		<path class="st0" d="M98,48.7V36.2h-3v-2.6h3v-2c0-3.3,1.6-4.8,4.9-4.8c0.8,0,1.6,0.1,2.3,0.3l0.1,0v2.6l-0.1,0
			c-0.8-0.1-1.4-0.2-1.9-0.2c-1.6,0-2.3,0.7-2.3,2.3v1.9h4.3v2.6H101v12.5H98z"/>
		<path class="st0" d="M100.2,8.6h-1.7c-2.8,0-5.1,2.3-5.1,5.1v2.5c0,1.3-1.1,2.4-2.4,2.4h-3.5c-1.4,0-2.6-1.2-2.6-2.6V16V8.6h-2.8
			v4.8V16v0.2c0,1.4-1.2,2.6-2.6,2.6H60.8V4.4h-2.7v16.9h7.5h13.9c1.6,0,3-0.7,4-1.8c1,1.1,2.4,1.8,4,1.8H91c1.5,0,2.8-0.6,3.8-1.7
			c0.9,1,2.3,1.7,3.8,1.7h6.8v-7.7C105.3,10.9,103,8.6,100.2,8.6 M102.6,18.7h-4.1c-1.3,0-2.4-1.1-2.4-2.4v-2.5
			c0-1.3,1.1-2.4,2.4-2.4h1.7c1.3,0,2.4,1.1,2.4,2.4V18.7z"/>
		<path class="st0" d="M49.8,8.6H48c-2.8,0-5.1,2.3-5.1,5.1v2.5c0,0.9,0.2,1.7,0.6,2.4H38c-2.7,0-5.2-1.2-6.9-3.3l-1.3-1.6l-2.1,1.7
			l1.3,1.6c1.1,1.3,2.5,2.4,4,3.2c1.5,0.7,3.3,1.1,5,1.1h10h0h4.6h2.3v-8h0C54.7,10.8,52.5,8.6,49.8,8.6 M52.2,18.7H48
			c-1.4,0-2.4-1.1-2.4-2.4v-2.5c0-1.3,1.1-2.4,2.4-2.4h1.8c1.3,0,2.4,1.1,2.4,2.4V18.7z"/>
	</g>
	<polygon points="48.6,3.2 46.7,5.1 48.6,7.1 50.6,5.1 	"/>
	<polygon points="74.2,8.5 72.2,6.6 70.2,8.5 72.2,10.5 	"/>
	<g>
		<defs>
			<rect id="SVGID_7_" x="17.6" y="3.2" width="155.7" height="54.8"/>
		</defs>
		<clipPath id="SVGID_2_">
			<use xlink:href="#SVGID_7_"  style="overflow:visible;"/>
		</clipPath>
		<path class="st1" d="M167.4,54.5c-3.1-10.3-4.4-20.8-3.8-31.1l6.1,0.4c-0.6,9.6,0.6,19.3,3.5,29L167.4,54.5z"/>
		<path class="st1" d="M155.1,57.6c-2.2-15.5-2.7-31.2-1.3-46.7l6.1,0.5c-1.3,15-0.9,30.3,1.3,45.3L155.1,57.6z"/>
		<path class="st1" d="M123.9,54.5l-5.9-1.8c2.9-9.6,4.1-19.4,3.5-29l6.1-0.4C128.2,33.7,127,44.2,123.9,54.5"/>
		<path class="st1" d="M136.2,57.6l-6.1-0.9c2.2-15,2.6-30.3,1.3-45.3l6.1-0.5C138.8,26.4,138.4,42.1,136.2,57.6"/>
	</g>
	<rect x="142.6" y="3.2" class="st2" width="6.1" height="54.8"/>
</g>
</svg>
